<?xml version="1.0" encoding="UTF-8"?>
<svg width="200" height="200" viewBox="0 0 200 200" fill="none" xmlns="http://www.w3.org/2000/svg">
    <circle cx="100" cy="100" r="100" fill="#007AFF"/>
    <path d="M100 60C77.9086 60 60 77.9086 60 100C60 122.091 77.9086 140 100 140C122.091 140 140 122.091 140 100C140 77.9086 122.091 60 100 60ZM90 95C87.2386 95 85 92.7614 85 90C85 87.2386 87.2386 85 90 85C92.7614 85 95 87.2386 95 90C95 92.7614 92.7614 95 90 95ZM110 95C107.239 95 105 92.7614 105 90C105 87.2386 107.239 85 110 85C112.761 85 115 87.2386 115 90C115 92.7614 112.761 95 110 95ZM80 105C80 115.493 89.0066 124 100 124C110.993 124 120 115.493 120 105H115C115 112.732 108.284 119 100 119C91.7157 119 85 112.732 85 105H80Z" fill="white"/>
</svg> 